HIERARCHY
ROOT Hips
{
	OFFSET -0.001795 -0.223333 0.028219
	CHANNELS 6 Xposition Yposition Zposition Zrotation Yrotation Xrotation 
	JOINT LeftUpLeg
	{
		OFFSET 0.069520 -0.091406 -0.006815
		CHANNELS 3 Zrotation Yrotation Xrotation
		JOINT LeftLeg
		{
			OFFSET 0.034277 -0.375199 -0.004496
			CHANNELS 3 Zrotation Yrotation Xrotation
			JOINT LeftFoot
			{
				OFFSET -0.013596 -0.397961 -0.043693
				CHANNELS 3 Zrotation Yrotation Xrotation
				JOINT LeftToe
				{
					OFFSET 0.026358 -0.055791 0.119288
					CHANNELS 3 Zrotation Yrotation Xrotation
					End Site
					{
						OFFSET 0.000000 0.000000 0.000000
					}
				}
			}
		}
	}
	JOINT RightUpLeg
	{
		OFFSET -0.067670 -0.090522 -0.004320
		CHANNELS 3 Zrotation Yrotation Xrotation
		JOINT RightLeg
		{
			OFFSET -0.038290 -0.382569 -0.008850
			CHANNELS 3 Zrotation Yrotation Xrotation
			JOINT RightFoot
			{
				OFFSET 0.015774 -0.398415 -0.042312
				CHANNELS 3 Zrotation Yrotation Xrotation
				JOINT RightToe
				{
					OFFSET -0.025372 -0.048144 0.123348
					CHANNELS 3 Zrotation Yrotation Xrotation
					End Site
					{
						OFFSET 0.000000 0.000000 0.000000
					}
				}
			}
		}
	}
	JOINT Spine
	{
		OFFSET -0.002533 0.108963 -0.026696
		CHANNELS 3 Zrotation Yrotation Xrotation
		JOINT Spine1
		{
			OFFSET 0.005487 0.135180 0.001092
			CHANNELS 3 Zrotation Yrotation Xrotation
			JOINT Spine2
			{
				OFFSET 0.001457 0.052922 0.025425
				CHANNELS 3 Zrotation Yrotation Xrotation
				JOINT Neck
				{
					OFFSET -0.002778 0.213870 -0.042857
					CHANNELS 3 Zrotation Yrotation Xrotation
					JOINT Head
					{
						OFFSET 0.005152 0.064970 0.051349
						CHANNELS 3 Zrotation Yrotation Xrotation
						End Site
						{
							OFFSET 0.000000 0.000000 0.000000
						}
					}
				}
				JOINT LeftShoulder
				{
					OFFSET 0.078845 0.121749 -0.034090
					CHANNELS 3 Zrotation Yrotation Xrotation
					JOINT LeftArm
					{
						OFFSET 0.090977 0.030469 -0.008868
						CHANNELS 3 Zrotation Yrotation Xrotation
						JOINT LeftForeArm
						{
							OFFSET 0.259612 -0.012772 -0.027456
							CHANNELS 3 Zrotation Yrotation Xrotation
							JOINT LeftHand
							{
								OFFSET 0.249234 0.008986 -0.001171
								CHANNELS 3 Zrotation Yrotation Xrotation
								End Site
								{
									OFFSET 0.000000 0.000000 0.000000
								}
							}
						}
					}
				}
				JOINT RightShoulder
				{
					OFFSET -0.081759 0.118833 -0.038615
					CHANNELS 3 Zrotation Yrotation Xrotation
					JOINT RightArm
					{
						OFFSET -0.096012 0.032551 -0.009143
						CHANNELS 3 Zrotation Yrotation Xrotation
						JOINT RightForeArm
						{
							OFFSET -0.253742 -0.013329 -0.021401
							CHANNELS 3 Zrotation Yrotation Xrotation
							JOINT RightHand
							{
								OFFSET -0.255298 0.007772 -0.005559
								CHANNELS 3 Zrotation Yrotation Xrotation
								End Site
								{
									OFFSET 0.000000 0.000000 0.000000
								}
							}
						}
					}
				}
			}
		}
	}
}
MOTION
Frames: 9
Frame Time: 0.050000
-0.011857 0.931132 0.004187 -1.869181 -5.124840 -1.018772 5.651818 -0.066969 -1.877969 -5.664301 0.891815 8.474863 7.230403 15.556576 6.807885 0.000000 0.000000 0.000000 4.692457 -0.364471 1.738768 2.355243 -0.126810 4.277931 -3.601971 -9.611743 2.096447 0.000000 0.000000 0.000000 5.613878 0.476060 -5.188847 -0.311482 0.188827 -4.676834 -1.015675 7.950727 11.763368 2.308605 0.075709 -14.013461 0.000000 0.000000 0.000000 -4.049056 -14.799457 4.900744 1.860936 -44.125134 -3.830821 124.437351 -30.033563 -52.212157 0.000000 0.000000 0.000000 24.377560 8.251067 4.742480 56.214861 -0.950897 -7.009437 1.188815 30.630730 1.778285 0.000000 0.000000 0.000000 
-0.011974 0.931145 0.004177 -2.128000 -5.302204 -0.901977 5.989242 -0.057729 -1.856248 -5.771588 0.912771 8.305855 7.308293 15.686983 6.768189 0.000000 0.000000 0.000000 5.042568 -0.356223 1.563616 2.212131 -0.103252 4.401397 -3.531588 -9.476767 2.170554 0.000000 0.000000 0.000000 5.887196 0.459304 -4.900504 -0.271907 0.172834 -4.976349 -0.928610 8.243868 11.605379 2.265220 0.192335 -14.606463 0.000000 0.000000 0.000000 -4.277715 -14.534171 4.783892 2.847391 -43.319214 -4.040510 124.263743 -29.816612 -51.833487 0.000000 0.000000 0.000000 24.596358 8.080818 4.708666 55.988931 -1.066223 -7.040537 0.901778 30.726028 1.719427 0.000000 0.000000 0.000000 
-0.011971 0.931249 0.004087 -2.107965 -5.051380 -1.037609 6.026506 -0.055123 -1.769694 -5.825037 0.917411 8.333032 7.174999 15.458731 6.743848 0.000000 0.000000 0.000000 5.193394 -0.375325 1.679076 1.958782 -0.070643 4.443875 -3.641022 -9.737892 2.208687 0.000000 0.000000 0.000000 5.815191 0.435633 -4.685172 -0.272700 0.175599 -4.863136 -0.848039 8.097785 11.516376 2.170051 0.252924 -14.610803 0.000000 0.000000 0.000000 -4.277945 -14.574193 4.797509 3.677568 -42.276082 -4.144152 124.512382 -29.298168 -51.296176 0.000000 0.000000 0.000000 24.778168 8.212545 4.797207 55.586409 -0.990985 -6.961222 0.428830 30.640951 1.587127 0.000000 0.000000 0.000000 
-0.012000 0.931463 0.003958 -2.058893 -4.901049 -1.167257 5.977656 -0.051671 -1.651596 -5.799140 0.907520 8.309006 7.086685 15.311281 6.791868 0.000000 0.000000 0.000000 5.293513 -0.415644 1.954412 1.711756 -0.046974 4.176675 -3.682610 -9.860482 2.298645 0.000000 0.000000 0.000000 5.540678 0.403793 -4.457574 -0.135431 0.118449 -4.878210 -0.806405 8.095578 11.614943 2.109545 0.389532 -15.420003 0.000000 0.000000 0.000000 -4.181639 -14.706638 4.840474 4.561065 -41.170780 -4.253527 123.873031 -28.887065 -50.200012 0.000000 0.000000 0.000000 25.377085 8.340094 4.957755 55.075596 -0.739311 -6.836112 -0.465103 30.893567 1.382285 0.000000 0.000000 0.000000 
-0.012110 0.931627 0.003805 -2.163273 -4.884919 -1.070682 6.185770 -0.054477 -1.789932 -5.941742 0.936673 8.355741 7.068095 15.280833 6.843726 0.000000 0.000000 0.000000 5.556485 -0.434660 2.003047 1.457445 -0.022694 3.890723 -3.664163 -9.860932 2.430713 0.000000 0.000000 0.000000 5.511066 0.406544 -4.515771 -0.194113 0.143923 -4.870995 -0.568372 8.012243 11.581656 1.791437 0.601095 -15.620895 0.000000 0.000000 0.000000 -4.388963 -14.672115 4.838162 4.688739 -40.668746 -4.204142 124.200178 -29.231033 -50.968306 0.000000 0.000000 0.000000 25.563115 8.525289 5.046422 54.889504 -0.601525 -6.748411 -0.825972 30.853280 1.278120 0.000000 0.000000 0.000000 
-0.012270 0.931916 0.003607 -2.190651 -4.429881 -1.178420 6.386108 -0.051343 -1.665735 -6.132519 0.956859 8.197486 6.816830 14.851690 6.827249 0.000000 0.000000 0.000000 5.724591 -0.480120 2.291415 1.318194 -0.018411 3.550239 -3.796000 -10.226905 2.653516 0.000000 0.000000 0.000000 5.235708 0.412047 -4.701100 -0.014423 0.071494 -4.755585 -0.595560 7.872938 11.679444 1.787392 0.680801 -16.247066 0.000000 0.000000 0.000000 -4.363871 -15.007318 4.952721 4.595185 -40.200821 -4.121378 124.075170 -30.113598 -52.294013 0.000000 0.000000 0.000000 26.014946 8.794294 5.306304 54.830547 -0.150166 -6.579999 -1.513506 30.431017 1.087936 0.000000 0.000000 0.000000 
-0.012497 0.931791 0.003465 -2.225201 -4.002788 -1.300985 6.578081 -0.054734 -1.723893 -6.293174 0.982866 8.411703 6.613634 14.496432 6.691025 0.000000 0.000000 0.000000 5.770310 -0.512384 2.521880 1.420283 -0.039811 3.358947 -3.938032 -10.565963 2.719331 0.000000 0.000000 0.000000 5.004388 0.401702 -4.696781 0.002725 0.066501 -4.530793 -0.514219 7.664223 11.565813 1.566742 0.824955 -16.282928 0.000000 0.000000 0.000000 -4.410174 -15.130710 4.993834 4.190609 -39.922608 -3.968083 124.410110 -30.802775 -53.670299 0.000000 0.000000 0.000000 26.440472 8.929445 5.438376 54.521611 -0.005291 -6.494488 -1.882660 29.997983 0.971848 0.000000 0.000000 0.000000 
-0.012711 0.931779 0.003326 -2.301585 -3.485038 -1.228575 6.847308 -0.072057 -2.108527 -6.499278 1.020179 8.793933 6.381146 14.092994 6.604259 0.000000 0.000000 0.000000 5.969109 -0.492811 2.335644 1.362664 -0.029729 3.529056 -4.147310 -11.064473 2.816473 0.000000 0.000000 0.000000 4.557013 0.402103 -4.959908 0.391383 -0.094817 -4.502441 -0.482165 7.426762 11.615073 1.988201 0.634281 -16.987914 0.000000 0.000000 0.000000 -4.570212 -15.123124 4.987755 3.879472 -39.888180 -3.882216 124.776657 -31.629651 -55.278992 0.000000 0.000000 0.000000 26.956269 8.863464 5.460399 54.067928 0.159765 -6.401498 -2.145607 29.864667 0.900672 0.000000 0.000000 0.000000 
-0.013066 0.931564 0.003203 -2.444281 -3.275967 -1.192366 7.210071 -0.073994 -2.281379 -6.773730 1.074346 8.972751 6.282827 13.915169 6.491583 0.000000 0.000000 0.000000 6.164522 -0.491379 2.272131 1.386036 -0.032661 3.568607 -4.229730 -11.254952 2.834084 0.000000 0.000000 0.000000 4.476748 0.419076 -5.217874 0.500300 -0.139997 -4.459804 -0.462866 7.392200 11.614746 2.229870 0.495340 -17.003094 0.000000 0.000000 0.000000 -4.743255 -15.463939 5.108854 3.200971 -39.819437 -3.691886 125.010975 -31.963356 -56.032855 0.000000 0.000000 0.000000 27.388842 9.168586 5.732805 53.953832 0.320087 -6.343580 -2.694480 29.510431 0.753558 0.000000 0.000000 0.000000 
